<svg width="200" height="200" viewBox="0 0 200 200" fill="none" xmlns="http://www.w3.org/2000/svg">
<rect width="200" height="200" rx="10" fill="#6B4A38" fill-opacity="0.54"/>
<path d="M10 30C10 20.5719 10 15.8579 12.9289 12.9289C15.8579 10 20.5719 10 30 10H40L45 15H155L160 10H170C179.428 10 184.142 10 187.071 12.9289C190 15.8579 190 20.5719 190 30V40L185 45.5V155L190 160V170C190 179.428 190 184.142 187.071 187.071C184.142 190 179.428 190 170 190H160L155 185H45L40 190H30C20.5719 190 15.8579 190 12.9289 187.071C10 184.142 10 179.428 10 170V160L15 155V45.5L10 40V30Z" fill="#6B4A38" fill-opacity="0.26" stroke="#664A29" stroke-opacity="0.91"/>
<g filter="url(#filter0_f)">
<rect x="90" y="9" width="20" height="5" fill="url(#paint0_radial)" style="mix-blend-mode:multiply"/>
<rect x="90" y="9" width="20" height="5" stroke="#A52A2A"/>
</g>
<g filter="url(#filter1_f)">
<rect x="10" y="110" width="20" height="5" transform="rotate(-90 10 110)" fill="url(#paint1_radial)" style="mix-blend-mode:multiply"/>
<rect x="10" y="110" width="20" height="5" transform="rotate(-90 10 110)" stroke="#A52A2A"/>
</g>
<g filter="url(#filter2_f)">
<rect x="185" y="110" width="20" height="5" transform="rotate(-90 185 110)" fill="url(#paint2_radial)" style="mix-blend-mode:multiply"/>
<rect x="185" y="110" width="20" height="5" transform="rotate(-90 185 110)" stroke="#A52A2A"/>
</g>
<g filter="url(#filter3_f)">
<rect x="90" y="185" width="20" height="5" fill="url(#paint3_radial)" style="mix-blend-mode:multiply"/>
<rect x="90" y="185" width="20" height="5" stroke="#A52A2A"/>
</g>
<defs>
<filter id="filter0_f" x="88.5" y="7.5" width="23" height="8" filterUnits="userSpaceOnUse" color-interpolation-filters="sRGB">
<feFlood flood-opacity="0" result="BackgroundImageFix"/>
<feBlend mode="normal" in="SourceGraphic" in2="BackgroundImageFix" result="shape"/>
<feGaussianBlur stdDeviation="0.5" result="effect1_foregroundBlur"/>
</filter>
<filter id="filter1_f" x="8.5" y="88.5" width="8" height="23" filterUnits="userSpaceOnUse" color-interpolation-filters="sRGB">
<feFlood flood-opacity="0" result="BackgroundImageFix"/>
<feBlend mode="normal" in="SourceGraphic" in2="BackgroundImageFix" result="shape"/>
<feGaussianBlur stdDeviation="0.5" result="effect1_foregroundBlur"/>
</filter>
<filter id="filter2_f" x="183.5" y="88.5" width="8" height="23" filterUnits="userSpaceOnUse" color-interpolation-filters="sRGB">
<feFlood flood-opacity="0" result="BackgroundImageFix"/>
<feBlend mode="normal" in="SourceGraphic" in2="BackgroundImageFix" result="shape"/>
<feGaussianBlur stdDeviation="0.5" result="effect1_foregroundBlur"/>
</filter>
<filter id="filter3_f" x="88.5" y="183.5" width="23" height="8" filterUnits="userSpaceOnUse" color-interpolation-filters="sRGB">
<feFlood flood-opacity="0" result="BackgroundImageFix"/>
<feBlend mode="normal" in="SourceGraphic" in2="BackgroundImageFix" result="shape"/>
<feGaussianBlur stdDeviation="0.5" result="effect1_foregroundBlur"/>
</filter>
<radialGradient id="paint0_radial" cx="0" cy="0" r="1" gradientUnits="userSpaceOnUse" gradientTransform="translate(100 11.5) rotate(90) scale(2.5 10)">
<stop stop-color="#FFD2D2"/>
<stop offset="1" stop-color="#FF0000"/>
</radialGradient>
<radialGradient id="paint1_radial" cx="0" cy="0" r="1" gradientUnits="userSpaceOnUse" gradientTransform="translate(20 112.5) rotate(90) scale(2.5 10)">
<stop stop-color="#FFD2D2"/>
<stop offset="1" stop-color="#FF0000"/>
</radialGradient>
<radialGradient id="paint2_radial" cx="0" cy="0" r="1" gradientUnits="userSpaceOnUse" gradientTransform="translate(195 112.5) rotate(90) scale(2.5 10)">
<stop stop-color="#FFD2D2"/>
<stop offset="1" stop-color="#FF0000"/>
</radialGradient>
<radialGradient id="paint3_radial" cx="0" cy="0" r="1" gradientUnits="userSpaceOnUse" gradientTransform="translate(100 187.5) rotate(90) scale(2.5 10)">
<stop stop-color="#FFD2D2"/>
<stop offset="1" stop-color="#FF0000"/>
</radialGradient>
</defs>
</svg>
